<?xml version="1.0" standalone="no"?>
<!DOCTYPE svg PUBLIC "-//W3C//DTD SVG 20010904//EN"
 "http://www.w3.org/TR/2001/REC-SVG-20010904/DTD/svg10.dtd">
<svg version="1.0" xmlns="http://www.w3.org/2000/svg"
 width="204.000000pt" height="91.000000pt" viewBox="0 0 204.000000 91.000000"
 preserveAspectRatio="xMidYMid meet">
<metadata>
Created by potrace 1.10, written by Peter Selinger 2001-2011
</metadata>
<g transform="translate(0.000000,91.000000) scale(0.100000,-0.100000)"
fill="#000000" stroke="none">
<path d="M874 885 c-14 -21 -15 -30 -5 -52 10 -21 9 -29 -5 -44 -14 -16 -15
-24 -6 -44 10 -21 9 -25 -5 -25 -9 0 -26 -9 -38 -20 -20 -18 -23 -19 -35 -5
-20 24 -118 20 -146 -6 -18 -17 -26 -19 -42 -10 -39 21 -135 8 -153 -21 -4 -7
-13 -7 -27 1 -26 14 -118 -4 -146 -28 -15 -13 -17 -25 -12 -71 3 -30 1 -73 -5
-95 -6 -22 -10 -58 -9 -80 1 -40 1 -40 -16 -17 -13 19 -14 29 -5 48 6 14 11
56 11 94 0 59 -4 73 -26 99 -29 35 -50 38 -120 15 -84 -28 -79 -11 -78 -294 0
-164 4 -254 11 -261 8 -8 26 -6 65 5 67 20 115 49 129 79 8 18 18 23 47 23 20
0 69 8 107 17 39 10 77 18 85 19 8 0 51 7 95 15 44 7 99 15 122 16 40 3 41 2
26 -15 -15 -17 -15 -19 0 -36 10 -11 17 -35 17 -59 0 -24 6 -46 15 -53 10 -9
12 -16 5 -25 -12 -15 15 -55 38 -55 9 0 32 9 50 20 39 24 104 26 122 5 19 -23
39 -18 70 15 17 18 30 25 32 18 3 -8 34 -12 99 -11 88 0 96 -2 105 -21 16 -37
47 -31 77 14 35 54 34 69 -7 109 -29 29 -36 31 -54 20 -16 -10 -26 -9 -62 10
-32 17 -45 19 -56 10 -11 -9 -16 -6 -23 13 -16 42 -37 53 -66 34 -14 -9 -25
-21 -25 -26 0 -6 -10 -10 -23 -10 -12 0 -33 -7 -45 -16 -13 -9 -31 -13 -43 -9
-11 4 -26 1 -34 -5 -12 -10 -15 -9 -15 7 0 29 -30 51 -78 59 -23 4 -42 10 -42
13 0 4 13 14 29 24 25 15 30 15 41 2 9 -11 40 -14 144 -14 146 1 181 -5 212
-32 12 -12 43 -21 80 -25 55 -6 62 -4 91 20 29 25 34 26 55 13 13 -8 48 -17
78 -21 30 -3 67 -8 82 -11 20 -4 31 0 40 15 17 26 22 25 36 -5 6 -13 25 -31
42 -40 27 -14 33 -14 60 0 16 8 39 32 50 53 l20 37 -6 -65 c-7 -76 2 -88 74
-109 39 -11 46 -10 63 5 10 9 19 28 19 41 0 15 12 34 30 50 30 25 39 60 20 79
-7 7 -4 25 10 57 29 64 22 153 -15 209 -28 43 -90 77 -155 85 -34 5 -39 2 -50
-24 l-14 -30 -24 29 c-13 15 -33 33 -43 39 -28 15 -75 -16 -99 -65 l-20 -40 6
50 c5 38 3 54 -9 66 -14 14 -97 34 -170 42 -16 2 -38 13 -50 25 l-22 21 47 -6
c62 -9 96 1 110 31 21 46 0 55 -127 55 -99 0 -114 -2 -130 -20 -15 -16 -15
-22 -5 -35 8 -9 9 -15 2 -15 -6 0 -27 -17 -47 -37 -33 -34 -37 -36 -52 -20
-15 15 -15 18 10 41 22 20 26 31 21 53 -12 51 -60 83 -79 53 -12 -19 -25 -10
-19 14 3 14 3 34 -1 45 -6 19 -14 21 -100 21 -90 0 -95 -1 -111 -25z m126 -4
c0 -5 -5 -11 -11 -13 -6 -2 -14 -28 -17 -58 -6 -45 -12 -57 -34 -69 -24 -14
-28 -14 -47 3 -16 15 -18 22 -10 32 14 17 30 9 22 -11 -3 -10 1 -15 14 -15 14
0 22 13 34 60 15 57 15 60 -4 66 -10 3 -24 1 -29 -4 -12 -12 -1 -35 13 -27 5
4 9 2 9 -4 0 -5 -6 -11 -12 -14 -22 -7 -38 4 -38 28 0 13 6 26 13 28 22 9 97
7 97 -2z m68 -12 c1 -8 -4 -23 -13 -34 -14 -19 -14 -18 -10 15 5 32 5 33 -6
10 -6 -14 -12 -43 -13 -65 -2 -46 -14 -71 -27 -58 -10 10 14 117 31 138 15 18
34 15 38 -6z m-1 -95 c-6 -32 11 -31 23 1 11 28 32 40 55 31 19 -7 10 -31 -18
-44 -21 -10 -21 -11 -1 -11 11 -1 25 4 32 11 7 7 12 8 12 2 0 -6 -11 -17 -25
-24 -20 -11 -27 -11 -40 0 -12 10 -18 10 -31 -1 -20 -16 -34 3 -26 34 4 15 2
18 -9 12 -12 -8 -12 -6 0 8 18 22 34 11 28 -19z m423 -9 c-12 -11 -36 -13
-122 -8 -59 3 -105 10 -102 14 3 5 58 9 122 9 102 0 114 -2 102 -15z m-167
-61 l47 -16 0 -62 c0 -35 -2 -65 -5 -68 -3 -2 -18 -3 -35 0 -23 3 -30 9 -30
27 0 32 -10 56 -21 49 -27 -16 13 -124 46 -124 9 0 15 -9 15 -24 0 -13 7 -37
15 -52 20 -38 20 -133 -1 -162 -24 -35 -50 -44 -110 -36 l-54 6 0 69 c0 72 2
75 47 63 14 -4 23 -17 28 -40 8 -46 25 -43 25 4 0 43 -32 102 -60 109 -10 3
-17 10 -14 17 3 7 -2 29 -11 49 -31 75 -12 162 43 191 15 9 27 15 28 16 0 0
21 -7 47 -16z m-343 -84 c0 -68 -1 -70 -26 -70 -18 0 -25 5 -23 18 3 38 -2 72
-11 72 -5 0 -10 -22 -10 -50 0 -44 3 -50 20 -50 18 0 21 -6 19 -45 -2 -36 -6
-45 -21 -45 -15 0 -18 -9 -18 -54 0 -30 5 -57 10 -59 6 -3 5 -4 -2 -3 -8 2
-15 27 -19 67 l-6 64 1 -70 c1 -62 3 -70 20 -70 16 0 19 8 20 55 1 49 3 55 24
58 21 3 22 0 22 -72 l0 -76 -75 0 c-73 0 -75 1 -75 25 0 14 5 25 10 25 14 0
13 137 -1 146 -8 4 -8 9 0 17 14 14 15 127 1 127 -5 0 -10 14 -10 30 l0 30 75
0 75 0 0 -70z m135 64 c40 -16 58 -112 33 -180 -9 -27 -8 -48 5 -111 25 -116
30 -108 -68 -105 -82 3 -85 4 -85 27 0 13 5 27 10 30 14 9 13 128 -2 143 -9 9
-9 15 0 24 14 14 16 114 2 123 -5 3 -10 17 -10 31 0 22 4 24 49 24 27 0 57 -3
66 -6z m-329 -29 c13 -19 15 -38 11 -77 -6 -50 -31 -93 -48 -82 -5 3 -9 1 -9
-5 0 -6 10 -16 23 -22 20 -11 21 -11 8 4 -8 11 -9 17 -3 17 20 0 32 -38 32
-100 0 -51 -4 -65 -25 -85 -16 -16 -36 -25 -57 -25 -18 0 -43 -3 -55 -6 -20
-5 -23 -2 -23 19 0 14 5 29 10 32 14 8 13 142 -1 151 -8 4 -8 9 0 17 14 14 15
127 1 127 -11 0 -14 43 -3 53 3 4 32 7 64 7 52 0 61 -3 75 -25z m-201 -10 c20
-20 25 -34 25 -78 0 -30 -5 -68 -11 -85 -7 -22 -7 -46 2 -89 6 -32 14 -72 16
-89 5 -35 6 -34 -92 -50 -22 -3 -48 -8 -57 -11 -14 -3 -18 2 -18 21 0 14 5 28
10 31 14 8 13 142 -1 151 -8 4 -8 9 0 17 14 14 15 141 1 132 -6 -4 -10 6 -10
23 0 27 4 31 48 40 26 5 51 10 55 11 4 0 19 -10 32 -24z m883 5 c22 0 23 -2
16 -75 -6 -68 -5 -75 11 -75 16 0 17 7 11 71 l-7 72 32 -7 c17 -3 38 -6 45 -6
9 0 14 -11 14 -30 0 -16 -4 -30 -10 -30 -14 0 -13 -107 1 -116 8 -4 8 -9 0
-17 -6 -6 -12 -45 -13 -87 l-2 -75 -6 75 -7 75 1 -75 c1 -66 3 -75 19 -72 13
2 17 -4 17 -24 0 -22 -3 -25 -22 -20 -13 3 -33 6 -45 6 -21 0 -22 2 -16 85 5
77 4 85 -12 85 -16 0 -17 -7 -12 -81 l7 -81 -31 6 c-18 3 -38 6 -45 6 -8 0
-14 10 -14 25 0 14 4 25 10 25 5 0 9 58 9 145 0 80 -4 145 -8 145 -4 0 -8 14
-8 31 0 26 3 30 21 25 12 -3 31 -6 44 -6z m-1070 -52 c-9 -43 -2 -138 11 -138
3 0 5 -34 3 -76 -3 -47 0 -80 7 -87 6 -6 11 -21 11 -34 0 -17 -8 -24 -37 -32
-55 -16 -55 -15 -48 38 6 47 6 49 -14 44 -19 -5 -21 -10 -15 -54 4 -30 3 -49
-3 -49 -6 0 -25 -3 -42 -6 -28 -6 -31 -4 -31 18 0 13 5 29 11 35 6 6 13 46 15
89 2 44 9 99 15 123 5 25 7 68 4 96 l-7 51 49 11 c84 18 82 19 71 -29z m-209
-1 c32 -39 24 -150 -15 -196 -29 -35 -30 -37 -1 -44 21 -6 21 -6 3 8 -17 13
-17 15 -3 15 26 0 41 -40 41 -111 0 -47 -5 -74 -18 -94 -17 -26 -92 -66 -148
-79 -26 -6 -28 -4 -28 23 0 16 5 31 11 33 10 3 14 83 11 193 -1 11 1 53 4 93
4 48 2 72 -5 72 -6 0 -11 15 -11 33 0 31 4 35 48 49 60 20 96 22 111 5z m1532
3 c67 -36 93 -274 40 -365 -14 -24 -24 -30 -51 -30 -28 0 -37 6 -53 32 -23 41
-48 187 -37 222 5 14 11 43 15 65 3 21 17 49 30 62 27 27 29 28 56 14z m229
-49 c45 -31 62 -78 57 -154 -5 -78 -34 -122 -74 -114 -22 4 -23 1 -23 -49 0
-29 5 -56 10 -59 6 -3 10 -20 10 -37 0 -22 -4 -29 -14 -25 -8 3 -33 11 -55 17
-34 9 -41 15 -41 35 0 14 5 25 10 25 14 0 13 167 -1 176 -8 4 -8 9 0 17 14 14
15 147 1 147 -5 0 -10 16 -10 34 l0 35 53 -15 c28 -8 63 -23 77 -33z m-1510
-21 c0 -27 -4 -50 -10 -50 -5 0 -10 23 -10 50 0 28 5 50 10 50 6 0 10 -22 10
-50z m946 -46 c-4 -14 -11 -22 -16 -19 -14 9 -12 63 3 68 15 5 21 -17 13 -49z
m-180 -53 l24 -19 -25 -4 c-28 -6 -36 8 -34 60 2 30 3 32 6 10 2 -15 15 -36
29 -47z m-579 -3 c-3 -7 -5 -2 -5 12 0 14 2 19 5 13 2 -7 2 -19 0 -25z m1367
-180 c8 -14 7 -21 -6 -34 -30 -30 -75 9 -48 42 16 18 39 15 54 -8z m-1191 -43
c40 -6 46 -19 20 -47 -15 -17 -15 -18 0 -18 9 0 22 -9 29 -19 12 -19 12 -19
23 2 9 17 18 21 44 19 19 -2 40 3 49 11 23 20 54 25 59 10 3 -8 -5 -13 -21
-13 -32 0 -43 -17 -16 -25 24 -8 26 -41 3 -67 -15 -17 -43 -25 -43 -13 0 3 12
16 27 29 l27 23 -23 12 c-12 7 -23 11 -24 9 -23 -46 -63 -62 -93 -37 -8 6 -14
7 -14 1 0 -13 -38 -37 -72 -46 -42 -10 -33 6 15 29 51 24 59 58 15 63 -33 4
-36 17 -8 34 29 18 25 28 -11 28 l-31 0 4 -55 c3 -37 1 -54 -6 -52 -6 2 -11
28 -12 58 -1 42 -5 55 -17 57 -10 2 -17 8 -17 14 0 5 12 7 28 4 15 -2 44 -7
65 -11z m295 -18 c2 -14 -4 -40 -13 -57 -9 -18 -15 -33 -13 -35 8 -7 48 16 48
28 0 19 36 50 49 42 18 -11 12 -33 -15 -54 -23 -18 -24 -21 -8 -21 25 0 38 10
53 38 7 12 16 20 22 16 6 -4 6 -11 -2 -20 -23 -28 2 -27 31 1 19 18 34 25 40
19 12 -12 1 -124 -13 -124 -6 0 -7 19 -4 50 l6 50 -27 -19 c-30 -21 -106 -36
-125 -24 -6 4 -26 6 -44 4 -54 -4 -67 54 -27 117 19 29 38 24 42 -11z m232
-92 c0 -8 -4 -15 -9 -15 -13 0 -22 16 -14 24 11 11 23 6 23 -9z"/>
<path d="M1116 791 c-4 -7 -5 -15 -2 -18 9 -9 19 4 14 18 -4 11 -6 11 -12 0z"/>
<path d="M1246 691 c-3 -4 6 -6 19 -3 14 2 38 -1 55 -8 25 -10 29 -18 33 -59
l3 -46 2 50 c2 49 1 51 -31 63 -39 14 -74 16 -81 3z"/>
<path d="M1252 590 c0 -14 2 -19 5 -12 2 6 2 18 0 25 -3 6 -5 1 -5 -13z"/>
<path d="M1260 554 c0 -17 40 -64 53 -63 8 0 7 3 -1 6 -8 3 -22 19 -33 37 -10
17 -19 26 -19 20z"/>
<path d="M1321 465 c0 -5 6 -21 14 -35 8 -14 14 -20 14 -15 0 6 -6 21 -14 35
-8 14 -14 21 -14 15z"/>
<path d="M1353 355 c0 -27 2 -38 4 -22 2 15 2 37 0 50 -2 12 -4 0 -4 -28z"/>
<path d="M1220 353 c8 -3 18 -11 22 -17 5 -7 8 -4 8 7 0 11 -7 17 -22 16 -16
0 -18 -2 -8 -6z"/>
<path d="M1251 309 c-1 -23 21 -40 39 -29 12 8 11 10 -7 10 -12 0 -24 8 -26
18 -4 14 -5 14 -6 1z"/>
<path d="M902 673 l57 -4 4 -52 3 -52 2 58 2 57 -62 -2 -63 -2 57 -3z"/>
<path d="M892 578 c-2 -54 -1 -58 21 -57 16 1 17 3 5 6 -13 3 -18 18 -21 56
l-3 52 -2 -57z"/>
<path d="M963 365 c0 -33 2 -45 4 -27 2 18 2 45 0 60 -2 15 -4 0 -4 -33z"/>
<path d="M1064 671 c30 -5 54 -14 62 -26 8 -10 14 -14 14 -7 0 21 -44 42 -85
41 l-40 -2 49 -6z"/>
<path d="M1060 566 c0 -76 2 -86 18 -85 10 0 12 3 5 6 -9 3 -12 26 -11 71 l1
67 7 -60 c5 -41 8 -50 10 -30 6 50 1 86 -15 102 -13 13 -15 5 -15 -71z"/>
<path d="M1143 580 c0 -25 2 -35 4 -22 2 12 2 32 0 45 -2 12 -4 2 -4 -23z"/>
<path d="M1122 455 c0 -16 2 -22 5 -12 2 9 2 23 0 30 -3 6 -5 -1 -5 -18z"/>
<path d="M1062 388 c1 -62 1 -62 8 -18 l7 45 2 -60 c2 -46 5 -54 11 -35 10 32
0 101 -17 118 -11 11 -13 3 -11 -50z"/>
<path d="M1132 400 c0 -14 2 -19 5 -12 2 6 2 18 0 25 -3 6 -5 1 -5 -13z"/>
<path d="M1141 360 c0 -8 4 -22 9 -30 12 -18 12 -2 0 25 -6 13 -9 15 -9 5z"/>
<path d="M710 663 c26 -2 50 -11 58 -20 6 -9 12 -12 12 -7 0 22 -26 34 -69 32
l-46 -1 45 -4z"/>
<path d="M702 578 c-2 -65 -1 -68 21 -67 16 1 17 3 5 6 -13 3 -18 18 -21 66
l-3 62 -2 -67z"/>
<path d="M720 580 c0 -32 4 -49 10 -45 6 3 10 24 10 45 0 21 -4 42 -10 45 -6
4 -10 -13 -10 -45z"/>
<path d="M782 600 c0 -14 2 -19 5 -12 2 6 2 18 0 25 -3 6 -5 1 -5 -13z"/>
<path d="M702 383 c-2 -70 -1 -73 21 -72 16 1 17 3 5 6 -14 3 -18 18 -21 71
l-3 67 -2 -72z"/>
<path d="M783 400 c0 -30 2 -43 4 -27 2 15 2 39 0 55 -2 15 -4 2 -4 -28z"/>
<path d="M720 385 c0 -42 3 -56 10 -45 5 8 10 29 10 45 0 17 -5 37 -10 45 -7
11 -10 -3 -10 -45z"/>
<path d="M530 643 c19 -3 42 -10 50 -16 13 -10 13 -10 1 6 -9 11 -26 16 -50
15 l-36 -1 35 -4z"/>
<path d="M512 538 c-2 -73 1 -88 13 -88 8 0 15 5 15 11 0 5 -4 8 -10 4 -5 -3
-11 28 -13 77 l-3 83 -2 -87z"/>
<path d="M592 590 c0 -14 2 -19 5 -12 2 6 2 18 0 25 -3 6 -5 1 -5 -13z"/>
<path d="M531 540 c0 -45 3 -59 9 -45 12 27 12 77 0 95 -7 10 -10 -5 -9 -50z"/>
<path d="M592 540 c0 -14 2 -19 5 -12 2 6 2 18 0 25 -3 6 -5 1 -5 -13z"/>
<path d="M572 440 c0 -14 2 -19 5 -12 2 6 2 18 0 25 -3 6 -5 1 -5 -13z"/>
<path d="M512 365 c-2 -57 6 -95 20 -95 5 0 8 6 7 13 -1 6 1 19 4 27 4 8 3 35
-2 60 l-9 45 -3 -60 -2 -60 -7 60 -7 60 -1 -50z"/>
<path d="M582 385 c0 -16 2 -22 5 -12 2 9 2 23 0 30 -3 6 -5 -1 -5 -18z"/>
<path d="M590 336 c0 -8 4 -17 9 -20 5 -4 7 3 4 14 -6 23 -13 26 -13 6z"/>
<path d="M1447 634 c12 -3 24 -13 27 -22 3 -12 4 -11 3 3 -2 14 -10 21 -27 22
-21 1 -21 1 -3 -3z"/>
<path d="M1526 619 c3 -5 14 -9 24 -9 10 0 21 -5 23 -10 3 -6 4 -5 3 2 -1 6
-14 15 -29 19 -16 4 -25 3 -21 -2z"/>
<path d="M1464 535 c1 -50 1 -50 36 -52 34 -1 34 -1 5 5 -27 6 -31 12 -36 52
l-7 45 2 -50z"/>
<path d="M1553 535 c0 -27 2 -38 4 -22 2 15 2 37 0 50 -2 12 -4 0 -4 -28z"/>
<path d="M1550 466 c0 -8 4 -17 9 -20 5 -4 7 3 4 14 -6 23 -13 26 -13 6z"/>
<path d="M1461 370 c0 -36 3 -71 7 -78 5 -7 7 16 5 50 -6 91 -11 103 -12 28z"/>
<path d="M338 613 c6 -2 18 -2 25 0 6 3 1 5 -13 5 -14 0 -19 -2 -12 -5z"/>
<path d="M373 540 c0 -25 2 -35 4 -22 2 12 2 32 0 45 -2 12 -4 2 -4 -23z"/>
<path d="M325 478 c0 -57 4 -79 14 -83 8 -3 16 -3 19 0 3 3 0 5 -6 5 -8 0 -12
20 -13 53 -1 28 -4 63 -8 77 -4 15 -7 -7 -6 -52z"/>
<path d="M312 470 c0 -19 2 -27 5 -17 2 9 2 25 0 35 -3 9 -5 1 -5 -18z"/>
<path d="M382 475 c0 -11 3 -29 8 -40 11 -25 11 1 0 35 -6 20 -8 21 -8 5z"/>
<path d="M300 397 c0 -10 8 -17 18 -17 9 0 13 4 7 8 -5 4 -13 11 -17 16 -5 5
-8 2 -8 -7z"/>
<path d="M393 340 c0 -25 2 -35 4 -22 2 12 2 32 0 45 -2 12 -4 2 -4 -23z"/>
<path d="M290 285 c0 -19 4 -35 8 -35 4 0 6 16 4 35 -2 19 -6 35 -8 35 -2 0
-4 -16 -4 -35z"/>
<path d="M158 590 c12 -5 22 -15 22 -21 0 -7 3 -9 6 -6 10 10 -16 37 -35 36
-11 0 -9 -3 7 -9z"/>
<path d="M108 583 c7 -3 16 -2 19 1 4 3 -2 6 -13 5 -11 0 -14 -3 -6 -6z"/>
<path d="M102 530 c0 -14 2 -19 5 -12 2 6 2 18 0 25 -3 6 -5 1 -5 -13z"/>
<path d="M192 520 c0 -19 2 -27 5 -17 2 9 2 25 0 35 -3 9 -5 1 -5 -18z"/>
<path d="M120 486 c0 -31 -4 -56 -10 -56 -5 0 -10 -9 -10 -20 0 -11 5 -20 12
-20 6 0 8 3 5 6 -3 4 0 16 8 28 17 23 20 102 5 111 -6 4 -10 -15 -10 -49z"/>
<path d="M101 484 c0 -11 3 -14 6 -6 3 7 2 16 -1 19 -3 4 -6 -2 -5 -13z"/>
<path d="M181 454 c0 -11 3 -14 6 -6 3 7 2 16 -1 19 -3 4 -6 -2 -5 -13z"/>
<path d="M192 315 c0 -16 2 -22 5 -12 2 9 2 23 0 30 -3 6 -5 -1 -5 -18z"/>
<path d="M105 299 c5 -6 7 -36 6 -65 -2 -60 15 -73 24 -21 10 53 3 91 -19 95
-13 3 -16 0 -11 -9z"/>
<path d="M191 224 c0 -11 3 -14 6 -6 3 7 2 16 -1 19 -3 4 -6 -2 -5 -13z"/>
<path d="M90 171 c0 -5 5 -13 10 -16 6 -3 10 -2 10 4 0 5 -4 13 -10 16 -5 3
-10 2 -10 -4z"/>
<path d="M1697 583 c13 -2 30 -14 38 -26 8 -12 15 -17 15 -11 0 18 -35 44 -56
43 -15 -1 -15 -3 3 -6z"/>
<path d="M1691 405 c0 -126 10 -180 23 -118 7 34 7 164 -1 216 -11 79 -22 31
-22 -98z"/>
<path d="M1757 495 c3 -22 7 -42 9 -44 8 -9 2 45 -6 64 -7 14 -8 8 -3 -20z"/>
<path d="M1673 470 c0 -30 2 -43 4 -27 2 15 2 39 0 55 -2 15 -4 2 -4 -28z"/>
<path d="M1771 414 c0 -11 3 -14 6 -6 3 7 2 16 -1 19 -3 4 -6 -2 -5 -13z"/>
<path d="M1673 340 c0 -36 2 -50 4 -32 2 17 2 47 0 65 -2 17 -4 3 -4 -33z"/>
<path d="M1772 360 c0 -14 2 -19 5 -12 2 6 2 18 0 25 -3 6 -5 1 -5 -13z"/>
<path d="M1761 294 c0 -11 3 -14 6 -6 3 7 2 16 -1 19 -3 4 -6 -2 -5 -13z"/>
<path d="M1680 260 c0 -6 7 -13 15 -17 24 -9 27 1 5 15 -13 8 -20 8 -20 2z"/>
<path d="M1865 565 c17 -8 37 -14 45 -14 8 0 -1 7 -20 14 -46 18 -64 17 -25 0z"/>
<path d="M1949 526 c29 -31 35 -33 22 -7 -6 10 -18 22 -28 25 -13 5 -11 1 6
-18z"/>
<path d="M1892 438 c-1 -54 1 -98 6 -98 4 0 6 30 4 67 -5 119 -9 131 -10 31z"/>
<path d="M1910 437 c0 -50 4 -76 10 -72 13 8 13 115 0 135 -7 10 -10 -9 -10
-63z"/>
<path d="M1993 415 c0 -27 2 -38 4 -22 2 15 2 37 0 50 -2 12 -4 0 -4 -28z"/>
<path d="M1892 244 c-2 -58 1 -74 16 -85 15 -12 16 -12 5 1 -7 9 -14 47 -16
85 l-3 70 -2 -71z"/>
<path d="M1941 234 c0 -11 3 -14 6 -6 3 7 2 16 -1 19 -3 4 -6 -2 -5 -13z"/>
<path d="M1963 228 c-1 -11 1 -16 5 -12 4 5 11 12 15 15 5 3 2 9 -5 12 -9 3
-14 -3 -15 -15z"/>
<path d="M886 113 c-9 -23 3 -34 25 -23 24 14 24 26 0 33 -12 3 -22 -1 -25
-10z"/>
<path d="M1061 167 c-7 -21 -11 -41 -8 -44 9 -9 28 37 25 60 -3 18 -6 15 -17
-16z"/>
<path d="M1145 139 c-11 -17 1 -21 15 -4 8 9 8 15 2 15 -6 0 -14 -5 -17 -11z"/>
<path d="M530 795 c-18 -21 1 -62 32 -70 13 -3 65 -2 117 2 73 6 96 12 105 26
8 12 8 22 0 35 -16 25 -234 31 -254 7z m240 -23 c0 -5 -46 -12 -102 -15 -83
-5 -106 -4 -118 8 -13 13 0 15 103 15 64 0 117 -4 117 -8z"/>
<path d="M431 156 c-53 -57 -14 -81 122 -73 104 5 136 19 124 51 -9 23 -41 32
-138 39 -81 5 -88 4 -108 -17z m228 -22 c12 -10 -15 -15 -117 -19 -108 -4
-124 -1 -102 21 10 10 208 8 219 -2z"/>
<path d="M1464 170 c-90 -8 -104 -13 -104 -39 0 -32 26 -42 118 -48 105 -7
138 -1 147 28 9 26 -30 70 -59 68 -12 -1 -57 -5 -102 -9z m134 -32 c7 -7 12
-15 12 -18 0 -6 -54 -7 -172 -2 -90 3 -68 21 30 25 48 1 94 4 103 5 8 1 20 -3
27 -10z"/>
</g>
</svg>
