<?xml version="1.0" standalone="no"?>
<!DOCTYPE svg PUBLIC "-//W3C//DTD SVG 20010904//EN"
 "http://www.w3.org/TR/2001/REC-SVG-20010904/DTD/svg10.dtd">
<svg version="1.0" xmlns="http://www.w3.org/2000/svg"
 width="612.000000pt" height="273.000000pt" viewBox="0 0 612.000000 273.000000"
 preserveAspectRatio="xMidYMid meet">
<metadata>
Created by potrace 1.10, written by Peter Selinger 2001-2011
</metadata>
<g transform="translate(0.000000,273.000000) scale(0.100000,-0.100000)"
fill="#000000" stroke="none">
<path d="M0 1365 l0 -1365 3060 0 3060 0 0 1365 0 1365 -3060 0 -3060 0 0
-1365z m2948 1295 c41 0 43 -1 40 -27 -2 -20 -10 -29 -28 -33 -19 -4 -26 -13
-28 -35 -2 -17 -8 -36 -14 -43 -6 -7 -13 -61 -16 -120 -5 -110 -15 -141 -57
-172 -32 -23 -88 -50 -105 -50 -32 0 -101 41 -119 71 -23 37 -10 73 32 90 24
10 31 9 45 -4 13 -14 14 -20 3 -41 -20 -37 -8 -56 34 -56 50 0 75 16 75 46 0
13 7 41 15 61 8 19 15 52 15 71 0 40 26 118 47 143 21 25 16 35 -30 53 -78 30
-137 11 -137 -43 0 -33 35 -55 63 -39 13 7 19 5 23 -6 10 -26 -3 -43 -40 -56
-31 -10 -41 -9 -68 7 -36 21 -54 66 -44 107 4 15 25 40 49 57 41 30 44 31 122
25 44 -3 99 -6 123 -6z m232 -12 c27 -29 25 -66 -5 -119 -14 -24 -28 -52 -31
-61 -4 -10 -13 -18 -20 -18 -18 0 -18 44 0 73 19 29 24 79 9 84 -6 2 -21 -17
-32 -43 -25 -56 -28 -114 -6 -114 8 0 15 -6 15 -14 0 -7 -7 -19 -15 -26 -8 -7
-15 -19 -15 -27 0 -7 -7 -16 -15 -19 -20 -8 -19 -24 3 -40 16 -12 16 -14 0
-44 -10 -18 -18 -37 -18 -44 0 -7 -10 -22 -22 -34 -23 -20 -23 -20 -47 -1 -24
19 -24 21 -8 55 10 19 17 53 17 75 0 22 7 56 15 76 8 19 15 52 15 72 0 20 7
45 15 55 8 11 15 29 15 41 0 28 62 95 88 95 12 0 30 -10 42 -22z m267 -247 c7
-9 13 -22 13 -29 0 -22 -30 -72 -44 -72 -7 0 -19 -7 -26 -15 -7 -8 -25 -15
-41 -15 -35 0 -40 -27 -6 -35 27 -7 69 7 105 35 27 22 52 26 52 9 0 -15 -55
-65 -92 -84 -43 -21 -62 -19 -108 10 -22 14 -43 25 -48 25 -5 0 -19 -11 -32
-25 -28 -30 -51 -32 -73 -7 -19 21 -22 47 -11 110 6 35 4 45 -12 56 -18 14
-18 15 0 35 24 26 38 26 61 1 15 -17 17 -30 11 -90 -5 -63 -4 -70 12 -70 17 0
52 63 52 93 0 18 70 84 95 90 31 6 79 -5 92 -22z m-1149 -76 c6 -2 12 -16 12
-30 0 -14 -6 -25 -12 -25 -7 -1 -83 -1 -168 0 -99 1 -188 -5 -244 -15 -49 -8
-114 -15 -146 -15 -52 0 -60 3 -98 39 -23 22 -37 42 -32 47 9 9 663 8 688 -1z
m2188 1 c3 -8 -10 -29 -33 -50 -35 -32 -43 -35 -98 -35 -33 0 -96 6 -140 14
-49 9 -146 15 -252 15 l-173 0 0 30 0 30 323 3 c177 1 332 3 345 5 12 1 25 -4
28 -12z m-581 -201 c17 -4 35 -12 40 -19 20 -22 55 -36 92 -36 67 0 66 3 64
-206 -2 -165 -4 -191 -19 -202 -10 -7 -26 -10 -37 -6 -11 4 -49 9 -85 13 l-65
6 -5 95 c-3 52 -11 107 -18 123 -13 31 -39 36 -49 10 -4 -10 -12 -21 -19 -25
-13 -8 -8 -178 6 -188 4 -3 19 -31 34 -62 14 -32 31 -58 36 -58 5 0 11 -9 15
-19 6 -20 52 -41 91 -41 21 0 22 -3 21 -69 -2 -53 2 -73 16 -88 9 -11 17 -24
17 -30 0 -6 7 -16 15 -23 8 -7 15 -22 15 -34 0 -12 7 -31 15 -42 21 -28 22
-336 0 -354 -8 -7 -15 -20 -15 -30 0 -21 -103 -130 -123 -130 -8 0 -20 -7 -27
-15 -9 -11 -34 -15 -95 -15 -61 0 -86 4 -95 15 -9 11 -33 15 -90 15 -54 0 -79
4 -81 13 -2 6 -2 100 1 207 6 220 -5 199 95 186 125 -17 113 -9 118 -79 3 -34
10 -84 18 -110 11 -43 15 -48 38 -45 33 4 45 49 38 148 -4 66 -14 97 -49 160
-4 8 -12 25 -17 36 -6 12 -30 43 -54 68 -39 40 -51 46 -86 46 -45 0 -49 8 -25
46 16 23 16 28 -1 67 -9 23 -22 51 -28 62 -6 11 -14 37 -19 58 -4 20 -12 56
-18 80 -15 67 -12 208 5 241 8 15 15 36 15 46 0 10 7 23 15 30 8 7 15 18 15
24 0 15 68 88 102 109 15 9 38 17 52 17 14 0 28 5 32 11 6 10 33 9 99 -6z
m-977 -273 l2 -213 -62 3 -63 3 -3 116 c-2 101 -5 119 -22 134 -17 15 -24 16
-46 6 -24 -10 -26 -16 -20 -49 3 -20 6 -83 6 -139 l0 -103 43 0 c68 0 69 -2
63 -134 -3 -64 -8 -121 -12 -127 -3 -6 -23 -9 -45 -8 -21 2 -41 0 -44 -3 -4
-3 -6 -79 -6 -168 0 -118 -3 -160 -11 -158 -22 8 -29 63 -26 212 2 103 -1 151
-8 153 -18 6 -19 -11 -16 -199 3 -175 3 -176 29 -203 21 -20 35 -25 62 -23 46
4 52 26 9 30 -38 3 -41 21 -4 26 31 4 37 27 42 162 5 123 16 140 90 140 l44 0
0 -219 c0 -121 -4 -222 -8 -225 -4 -2 -104 -6 -222 -7 l-215 -2 -3 69 c-2 68
-2 69 28 86 l30 17 0 195 0 194 -30 25 c-16 14 -30 28 -30 31 0 4 13 19 30 34
l30 27 1 170 c2 177 2 175 -43 189 -15 5 -18 18 -18 85 l0 81 193 3 c105 1
206 3 222 2 l30 0 3 -213z m399 187 c23 -11 54 -35 68 -52 14 -18 30 -37 35
-44 6 -7 10 -19 10 -28 0 -9 7 -26 16 -39 12 -20 14 -49 12 -158 -4 -132 -10
-162 -50 -240 -15 -30 -17 -49 -12 -105 4 -37 13 -83 20 -102 8 -18 14 -53 14
-76 0 -23 7 -62 15 -85 8 -23 15 -53 15 -65 0 -12 7 -28 15 -35 12 -10 15 -30
13 -84 l-3 -71 -115 4 c-63 2 -176 4 -250 5 l-135 1 -3 59 c-3 54 -1 61 27 89
l31 29 0 183 c0 178 -1 183 -25 219 -14 20 -25 41 -25 47 0 6 11 25 25 43 24
32 25 38 25 188 0 153 0 156 -24 171 -20 14 -24 26 -28 84 -3 37 -3 71 -1 76
2 4 68 7 145 7 123 0 147 -3 185 -21z m-1075 -5 c41 -7 108 -66 108 -94 0 -10
7 -34 15 -53 19 -46 19 -159 0 -212 -8 -22 -15 -57 -15 -78 0 -24 -5 -40 -15
-43 -8 -4 -15 -11 -15 -18 0 -6 -13 -20 -30 -29 -30 -18 -41 -47 -18 -47 21 0
78 -45 78 -62 0 -9 7 -24 16 -32 13 -13 15 -46 16 -185 1 -192 -9 -229 -77
-285 -52 -43 -98 -57 -213 -66 -56 -4 -116 -13 -132 -20 -49 -20 -60 -9 -60
62 0 58 2 65 30 88 l30 25 0 193 c0 165 -2 197 -17 220 -10 15 -24 31 -32 36
-12 8 -12 10 0 20 8 6 22 23 32 39 15 23 17 49 15 195 l-3 167 -25 0 c-24 0
-25 3 -28 72 -3 66 -1 73 20 84 34 18 253 34 320 23z m-550 -63 c34 -13 74
-57 100 -109 20 -42 22 -61 21 -188 -1 -108 -5 -148 -17 -172 -9 -17 -16 -38
-16 -47 0 -9 -9 -28 -20 -42 -16 -21 -19 -35 -13 -87 3 -33 12 -73 19 -88 8
-15 14 -50 14 -78 0 -28 7 -67 15 -87 8 -19 15 -47 15 -61 0 -14 7 -34 16 -44
12 -13 17 -37 17 -90 l1 -73 -40 -7 c-21 -5 -60 -13 -86 -19 -26 -6 -66 -9
-90 -8 -24 1 -53 -3 -64 -9 -12 -6 -48 -14 -80 -18 -33 -3 -76 -12 -97 -20
-21 -8 -43 -12 -48 -9 -5 4 -9 34 -9 69 0 58 2 64 30 84 l30 23 0 209 0 209
-32 25 c-28 21 -30 26 -15 32 9 3 17 12 17 19 0 7 7 18 15 25 12 10 15 44 15
186 l0 174 -25 10 c-25 9 -26 13 -23 82 l3 73 55 5 c30 3 65 11 77 18 12 7 41
12 65 13 24 0 52 4 63 9 21 9 47 7 87 -9z m2573 -16 c22 -8 61 -14 87 -15 26
0 59 -5 73 -12 25 -11 25 -13 20 -86 -2 -42 -9 -80 -15 -86 -6 -6 -10 -63 -10
-137 l0 -127 38 -5 c20 -2 41 -1 46 4 14 12 10 240 -4 249 -6 4 -13 43 -16 88
l-4 82 44 0 c24 0 60 -7 79 -15 20 -8 56 -15 80 -15 24 0 48 -5 55 -12 13 -13
16 -126 4 -144 -4 -7 -16 -13 -27 -15 -19 -4 -20 -13 -23 -176 -2 -164 -2
-173 18 -183 25 -14 25 -35 0 -60 -19 -19 -20 -31 -18 -233 l3 -212 25 -12
c24 -11 26 -17 24 -75 -1 -35 -2 -66 -3 -70 -2 -13 -54 -8 -81 7 -14 8 -47 15
-75 15 -27 0 -61 6 -75 13 -22 11 -25 20 -26 67 -1 30 5 64 12 76 16 27 23
339 7 355 -6 6 -28 9 -49 7 l-38 -3 3 -160 c2 -112 6 -165 15 -175 8 -9 13
-43 13 -82 l0 -68 -37 0 c-20 0 -50 5 -67 10 -16 6 -59 14 -94 18 l-64 7 3 60
c3 42 9 64 20 72 45 33 44 27 41 236 -4 194 -5 200 -26 215 -13 8 -23 19 -23
25 0 6 10 21 23 35 21 22 22 34 26 193 l3 169 -28 10 c-29 10 -29 11 -27 88 0
42 2 80 2 85 1 11 21 8 66 -8z m-3073 -127 c-3 -60 -7 -76 -25 -90 -19 -15
-21 -24 -18 -105 1 -48 11 -126 20 -172 15 -70 21 -86 40 -93 18 -6 22 -13 17
-31 -35 -116 -38 -140 -27 -195 6 -30 11 -99 11 -152 0 -90 2 -98 25 -120 22
-21 25 -32 25 -91 l0 -67 -40 -16 c-22 -9 -57 -16 -78 -16 -20 0 -50 -7 -66
-15 -15 -8 -39 -15 -52 -15 -23 0 -24 3 -24 70 0 59 3 71 20 80 17 9 20 21 20
79 0 74 -12 91 -47 66 -10 -7 -32 -15 -48 -17 -28 -3 -30 -7 -38 -57 -6 -43
-4 -59 9 -79 18 -28 26 -126 12 -154 -6 -12 -20 -18 -44 -18 -19 0 -47 -6 -62
-14 -15 -8 -47 -15 -72 -17 l-45 -4 0 67 c0 60 2 68 28 88 23 18 27 29 27 73
0 29 7 83 15 122 20 95 20 258 0 275 -17 14 -20 40 -6 40 29 0 70 170 85 353
4 54 3 59 -20 67 -22 9 -24 15 -24 79 0 82 9 92 83 99 29 3 61 11 72 18 11 8
38 14 60 14 22 0 50 6 61 14 24 17 73 25 94 15 11 -6 14 -24 12 -81z m-654
-47 c23 -22 42 -48 42 -58 1 -10 7 -29 15 -43 17 -31 20 -186 3 -245 -6 -22
-13 -66 -15 -97 -3 -32 -11 -62 -19 -69 -8 -6 -14 -17 -14 -24 0 -7 -18 -30
-40 -51 -46 -45 -51 -64 -15 -64 32 0 85 -38 85 -61 0 -9 6 -22 14 -28 14 -12
29 -139 28 -241 0 -93 -18 -203 -40 -253 -22 -49 -88 -121 -126 -138 -12 -5
-41 -21 -65 -34 -24 -14 -51 -25 -60 -25 -9 0 -25 -7 -35 -15 -11 -8 -31 -15
-45 -15 -14 0 -35 -7 -45 -15 -11 -8 -34 -15 -52 -15 -17 0 -37 -7 -44 -15 -7
-8 -25 -15 -41 -15 l-29 0 1 72 c2 82 11 108 38 108 30 0 38 43 40 210 1 85 4
177 8 203 7 60 -21 153 -49 160 -23 6 -23 22 0 45 42 42 52 98 52 289 l0 182
-32 3 -33 3 -1 80 c0 99 7 115 49 115 18 0 42 7 53 15 10 8 31 15 45 15 14 0
34 7 45 15 10 8 30 15 44 15 14 0 36 7 50 15 14 8 52 14 85 15 57 0 63 -2 103
-39z m4579 22 c46 -22 102 -79 126 -130 10 -21 25 -51 33 -66 8 -16 14 -41 14
-56 0 -15 7 -36 15 -47 8 -11 15 -42 15 -74 1 -74 33 -233 48 -238 16 -5 15
-39 -1 -45 -10 -4 -16 -34 -20 -95 -4 -49 -11 -102 -17 -116 -5 -15 -10 -49
-10 -75 0 -26 -7 -56 -15 -67 -8 -10 -15 -31 -15 -45 0 -15 -7 -32 -15 -39 -8
-7 -15 -18 -15 -25 0 -7 -18 -31 -40 -53 -65 -65 -146 -67 -215 -7 -36 32 -57
60 -70 95 -3 8 -13 28 -21 43 -7 16 -14 38 -14 48 0 11 -5 30 -11 42 -13 23
-24 105 -38 277 -7 84 -14 118 -26 126 -19 14 -20 40 -1 51 17 10 46 126 46
186 0 26 7 64 15 84 8 19 15 43 15 53 0 10 7 23 15 30 8 7 15 20 15 29 0 34
80 105 147 130 1 1 19 -7 40 -16z m411 -43 c11 0 33 -7 48 -15 16 -8 41 -15
55 -15 15 0 40 -7 55 -15 16 -8 41 -15 57 -15 15 0 27 -4 27 -9 0 -5 14 -14
30 -20 65 -22 179 -166 180 -227 1 -10 7 -30 15 -44 11 -18 14 -62 14 -165 0
-103 -3 -147 -14 -165 -8 -14 -14 -37 -15 -52 0 -34 -33 -98 -63 -125 -49 -44
-145 -70 -162 -43 -3 5 -15 10 -26 10 -18 0 -19 -8 -19 -163 0 -172 3 -185 50
-199 12 -4 15 -23 16 -91 l0 -87 -27 0 c-14 0 -32 7 -39 15 -7 8 -27 15 -44
15 -18 0 -41 7 -52 15 -10 8 -32 14 -49 15 -16 0 -51 8 -77 17 l-48 17 0 72 0
73 33 3 32 3 0 246 0 247 -28 28 -28 27 28 29 28 29 3 171 c5 211 1 236 -36
240 -27 3 -27 3 -30 92 -4 115 -1 121 37 101 17 -8 39 -15 49 -15z m415 -997
c27 -26 37 -45 37 -68 0 -44 -61 -105 -105 -105 -45 0 -105 61 -105 107 0 21
6 36 15 39 8 4 15 11 15 18 0 17 51 45 81 46 16 0 39 -13 62 -37z m-3744 -123
c26 -12 65 -20 100 -20 81 -1 193 -32 204 -58 15 -32 0 -69 -32 -83 -17 -8
-34 -23 -39 -34 -8 -18 -4 -21 32 -30 34 -8 47 -19 75 -62 35 -53 50 -55 51
-7 0 23 71 94 93 94 8 0 27 -6 43 -14 69 -33 87 -31 149 22 48 42 66 51 111
56 68 8 86 1 82 -33 -3 -22 -7 -26 -33 -24 -43 3 -99 -14 -120 -37 -17 -19
-17 -20 1 -27 80 -29 111 -75 98 -142 -6 -30 -65 -98 -109 -127 -45 -30 -94 1
-79 48 4 15 12 18 30 14 28 -7 91 43 100 79 7 27 -11 65 -30 65 -8 0 -19 7
-26 15 -7 8 -25 15 -41 15 -27 0 -29 -3 -29 -39 0 -34 -6 -45 -41 -75 -72 -61
-172 -62 -208 0 -24 40 -38 43 -47 9 -12 -48 -125 -130 -202 -145 -26 -6 -59
-13 -74 -16 -23 -5 -28 -2 -33 19 -10 37 1 47 50 47 24 0 47 4 50 10 3 5 15
10 25 10 10 0 25 7 34 15 8 8 19 15 24 15 19 0 92 83 92 104 0 39 -48 70 -115
76 -56 5 -60 7 -63 31 -4 31 23 55 96 88 53 24 13 51 -80 54 l-73 2 -3 -125
c-2 -95 1 -127 11 -135 22 -17 27 -43 11 -60 -21 -21 -29 -19 -60 13 l-26 27
5 148 5 148 -25 10 c-13 5 -35 9 -48 9 -18 0 -26 7 -31 24 -12 50 21 59 95 26z
m1062 -12 c14 -18 18 -39 19 -91 0 -56 -5 -79 -31 -130 -17 -34 -40 -72 -51
-84 -16 -17 -18 -26 -10 -36 9 -11 22 -11 68 -2 58 11 83 35 84 79 0 19 50 88
85 118 46 39 100 12 100 -51 0 -49 -37 -92 -103 -121 -56 -25 -51 -45 9 -44
57 2 119 25 119 44 0 32 60 130 80 130 4 0 12 -11 17 -23 9 -20 7 -29 -13 -53
-13 -16 -23 -39 -24 -51 0 -50 33 -35 129 56 41 39 82 71 92 71 24 0 50 -44
44 -77 -8 -47 -15 -123 -22 -220 -5 -80 -8 -92 -25 -96 -42 -11 -50 1 -43 67
4 33 13 95 21 136 8 41 14 81 14 88 0 23 -25 11 -70 -33 -25 -25 -53 -48 -62
-51 -10 -3 -18 -9 -18 -14 0 -14 -45 -20 -80 -10 -25 7 -46 5 -91 -10 -75 -26
-91 -25 -138 4 -27 18 -41 22 -49 14 -6 -6 -47 -11 -91 -12 -75 -1 -82 1 -98
24 -32 45 -54 163 -34 183 6 6 11 26 11 44 0 66 73 173 118 173 13 0 32 -10
43 -22z m-1774 -208 c16 -4 127 -11 248 -15 222 -6 239 -9 232 -45 -2 -12 -37
-16 -212 -23 -116 -4 -271 -6 -345 -5 -156 3 -168 12 -103 73 37 35 40 36 95
30 32 -3 70 -10 85 -15z m3262 2 c5 -10 21 -24 36 -32 17 -9 25 -21 23 -34 -3
-20 -10 -21 -138 -24 -74 -1 -229 1 -345 5 -208 8 -210 8 -213 31 -2 12 3 24
10 27 7 2 117 9 243 14 127 5 248 14 270 19 66 16 103 14 114 -6z m-775 -127
c4 -14 2 -34 -4 -45 -12 -23 -60 -28 -60 -6 0 8 -7 17 -16 20 -13 5 -13 9 3
31 25 34 69 34 77 0z"/>
<path d="M3338 2355 c-23 -31 -23 -55 1 -55 20 0 51 39 51 65 0 23 -33 17 -52
-10z"/>
<path d="M3808 2083 c-73 -6 -57 -21 22 -21 55 -1 76 -5 97 -21 14 -12 32 -21
40 -21 23 0 10 35 -14 38 -12 2 -27 10 -33 18 -7 8 -24 13 -39 12 -14 -1 -47
-3 -73 -5z"/>
<path d="M4015 2019 c-23 -5 -25 -7 -8 -8 12 0 25 -5 28 -11 9 -15 25 -12 25
4 0 20 -10 24 -45 15z"/>
<path d="M4047 1953 c-11 -10 -8 -201 3 -208 6 -4 10 33 10 104 0 111 -1 117
-13 104z"/>
<path d="M3747 1823 c-11 -10 -8 -111 3 -118 6 -4 10 18 10 59 0 66 -1 72 -13
59z"/>
<path d="M3766 1665 c-6 -18 2 -44 21 -63 7 -7 13 -20 13 -28 0 -8 5 -14 10
-14 6 0 10 -6 10 -13 0 -23 85 -98 103 -91 22 8 22 23 0 31 -28 10 -93 82 -93
102 0 11 -7 21 -15 25 -9 3 -15 18 -15 36 0 32 -23 42 -34 15z"/>
<path d="M3956 1403 c-12 -12 -6 -61 9 -67 8 -3 15 -15 15 -26 0 -11 7 -23 15
-26 9 -4 15 -19 15 -35 0 -34 16 -38 26 -7 4 14 1 25 -10 33 -9 7 -16 22 -16
34 0 12 -7 24 -15 27 -8 4 -15 19 -15 34 0 29 -12 45 -24 33z"/>
<path d="M4047 1193 c-11 -10 -8 -111 3 -118 6 -4 10 18 10 59 0 66 -1 72 -13
59z"/>
<path d="M3670 1060 c-46 -7 -46 -11 0 -16 14 -1 34 -4 45 -6 12 -2 20 3 20
11 0 18 -9 20 -65 11z"/>
<path d="M3739 933 c-14 -36 15 -98 55 -118 25 -13 32 -13 57 2 35 21 33 36
-7 44 -65 13 -74 20 -74 55 0 43 -17 53 -31 17z"/>
<path d="M2555 2019 c-4 -6 -5 -12 -3 -14 2 -2 80 -5 173 -6 139 -1 170 1 170
12 0 11 -32 14 -167 16 -109 2 -169 -1 -173 -8z"/>
<path d="M2873 1954 c-3 -8 -1 -52 4 -97 l10 -82 2 98 c1 94 -3 114 -16 81z"/>
<path d="M2661 1717 c0 -186 -2 -181 75 -170 52 7 54 26 3 31 -59 6 -61 12
-58 161 1 93 -1 136 -9 139 -8 2 -11 -43 -11 -161z"/>
<path d="M2882 1740 c0 -19 2 -27 5 -17 2 9 2 25 0 35 -3 9 -5 1 -5 -18z"/>
<path d="M2875 1094 c-5 -102 -4 -149 4 -157 8 -8 11 31 11 146 0 86 -2 157
-4 157 -2 0 -7 -66 -11 -146z"/>
<path d="M3072 2023 c-6 -2 -10 -9 -6 -14 7 -11 191 -12 198 0 10 16 -157 28
-192 14z"/>
<path d="M3297 1994 c-10 -11 3 -24 23 -24 10 0 22 -9 25 -20 3 -11 13 -20 21
-20 8 0 14 -10 14 -24 0 -29 15 -42 24 -21 6 18 -2 45 -15 45 -5 0 -9 6 -9 13
-1 30 -65 69 -83 51z"/>
<path d="M3175 1931 c-4 -7 -7 -118 -7 -247 0 -247 3 -264 46 -264 28 0 42 10
51 39 7 22 5 23 -24 16 -39 -8 -41 9 -3 27 28 14 29 14 46 187 4 39 -6 124
-20 174 -3 10 -15 17 -30 17 -13 0 -24 6 -24 13 0 7 -6 21 -13 32 -11 13 -16
15 -22 6z m45 -236 c0 -90 -4 -145 -10 -145 -6 0 -10 55 -10 145 0 90 4 145
10 145 6 0 10 -55 10 -145z"/>
<path d="M3417 1843 c-9 -9 -7 -122 3 -153 5 -17 8 6 9 68 1 92 0 98 -12 85z"/>
<path d="M3357 1413 c-10 -10 -8 -121 2 -127 8 -5 21 62 21 110 0 23 -10 31
-23 17z"/>
<path d="M3167 1327 c-3 -8 -1 -62 3 -121 6 -68 5 -128 -1 -162 -11 -57 -7
-74 17 -74 10 0 14 12 14 42 0 68 22 30 29 -49 7 -77 24 -91 29 -23 2 25 10
53 19 62 11 12 14 29 9 60 -5 34 -22 181 -25 221 -1 4 -12 7 -25 7 -17 0 -26
7 -30 25 -7 27 -30 34 -39 12z"/>
<path d="M3380 1180 c0 -59 16 -67 22 -11 4 45 1 61 -13 61 -5 0 -9 -22 -9
-50z"/>
<path d="M3417 1083 c-15 -15 -5 -70 18 -98 l25 -30 0 28 c0 15 -4 27 -10 27
-5 0 -10 12 -10 28 0 31 -13 56 -23 45z"/>
<path d="M2027 1992 c-15 -2 -25 -8 -22 -13 4 -5 60 -9 127 -9 111 0 122 -2
144 -22 13 -13 24 -29 24 -35 0 -16 16 -17 26 -2 4 7 -10 27 -31 47 l-38 36
-101 0 c-55 1 -113 0 -129 -2z"/>
<path d="M2090 1908 c-5 -26 -1 -391 4 -395 7 -7 71 -6 97 2 25 8 24 31 -1 38
l-21 5 21 36 c16 29 20 55 21 134 1 106 -18 166 -50 160 -14 -3 -16 -23 -19
-152 -2 -95 1 -153 8 -161 8 -10 8 -15 0 -20 -27 -17 -33 17 -32 184 0 141 -2
171 -14 171 -8 0 -14 -1 -14 -2z"/>
<path d="M2343 1795 c0 -27 2 -38 4 -22 2 15 2 37 0 50 -2 12 -4 0 -4 -28z"/>
<path d="M2205 1469 c-8 -26 26 -62 68 -73 15 -3 27 -13 27 -21 0 -17 16 -20
25 -5 8 12 -26 59 -42 60 -7 0 -22 14 -35 30 -26 36 -34 37 -43 9z"/>
<path d="M2087 1337 c-3 -7 0 -56 5 -110 6 -62 6 -132 0 -194 -12 -118 -7
-129 58 -116 56 11 63 31 13 35 l-38 3 -9 105 c-6 66 -5 130 1 175 10 68 3
115 -16 115 -5 0 -11 -6 -14 -13z"/>
<path d="M2330 1291 c0 -28 5 -53 10 -56 6 -4 10 15 10 49 0 31 -4 56 -10 56
-5 0 -10 -22 -10 -49z"/>
<path d="M2147 1303 c-4 -3 -7 -77 -7 -164 0 -134 2 -158 16 -163 9 -3 19 -4
24 -1 13 8 22 65 27 169 4 82 1 105 -14 133 -17 32 -32 40 -46 26z"/>
<path d="M1585 1930 c-80 -5 -86 -6 -52 -14 21 -5 54 -6 74 -3 55 9 87 -1 112
-39 21 -30 41 -37 41 -14 0 10 -72 81 -80 78 -3 -1 -45 -4 -95 -8z"/>
<path d="M1526 1842 c-4 -6 -7 -123 -8 -259 l-1 -248 37 0 c30 0 41 5 54 28
15 24 15 29 3 37 -11 6 -12 12 -4 22 15 18 23 75 30 194 6 116 -11 189 -43
189 -18 0 -19 -13 -22 -189 -2 -127 1 -193 9 -202 12 -15 4 -34 -14 -34 -7 0
-14 21 -16 53 -7 79 -5 329 2 358 7 29 -15 70 -27 51z"/>
<path d="M1760 1781 c0 -28 5 -53 10 -56 6 -4 10 15 10 49 0 31 -4 56 -10 56
-5 0 -10 -22 -10 -49z"/>
<path d="M1707 1364 c-10 -11 -9 -114 2 -114 12 0 24 101 13 112 -4 4 -11 5
-15 2z"/>
<path d="M1519 1223 c0 -5 0 -79 0 -167 0 -124 3 -162 15 -175 8 -9 16 -27 18
-41 3 -28 36 -40 49 -19 4 8 6 23 3 34 -3 13 4 32 17 48 19 25 21 36 15 90 -4
34 -10 94 -14 134 -8 80 -15 92 -41 76 -16 -10 -20 -9 -24 8 -5 18 -36 28 -38
12z m54 -332 c-1 -1 -6 0 -12 4 -13 7 -15 223 -3 252 4 10 9 -42 12 -117 3
-74 5 -137 3 -139z"/>
<path d="M1730 1151 c0 -28 5 -53 10 -56 6 -4 10 15 10 49 0 31 -4 56 -10 56
-5 0 -10 -22 -10 -49z"/>
<path d="M1767 1044 c-11 -11 -8 -84 3 -84 5 0 12 10 15 23 7 25 -7 72 -18 61z"/>
<path d="M1786 951 c-9 -14 5 -42 18 -38 15 5 14 39 -1 44 -6 2 -14 0 -17 -6z"/>
<path d="M4287 1903 c-17 -16 -3 -23 48 -23 53 0 72 11 39 24 -21 8 -79 8 -87
-1z"/>
<path d="M4400 1866 c0 -8 5 -18 10 -21 6 -3 10 3 10 14 0 12 -4 21 -10 21 -5
0 -10 -6 -10 -14z"/>
<path d="M4602 1843 c-39 -8 -13 -23 38 -23 49 0 73 13 44 24 -17 6 -45 6 -82
-1z"/>
<path d="M4374 1593 c0 -162 2 -166 116 -173 63 -4 81 -2 85 9 10 25 -12 34
-75 32 -52 -1 -65 2 -86 21 -22 22 -24 30 -24 131 0 59 -3 107 -7 107 -5 0 -8
-57 -9 -127z"/>
<path d="M4640 1686 c0 -8 5 -18 10 -21 6 -3 10 3 10 14 0 12 -4 21 -10 21 -5
0 -10 -6 -10 -14z"/>
<path d="M4647 1424 c-10 -11 -8 -72 3 -79 5 -3 12 5 15 17 7 26 -7 73 -18 62z"/>
<path d="M4670 1325 c0 -9 5 -15 11 -13 6 2 11 8 11 13 0 5 -5 11 -11 13 -6 2
-11 -4 -11 -13z"/>
<path d="M4374 1093 c2 -188 12 -249 39 -240 21 7 19 34 -3 40 -19 5 -20 12
-20 155 0 83 4 162 10 176 11 30 4 56 -15 56 -10 0 -13 -40 -11 -187z"/>
<path d="M4644 1239 c-3 -6 -1 -16 5 -22 8 -8 11 -5 11 11 0 24 -5 28 -16 11z"/>
<path d="M4652 1028 c-1 -75 -6 -148 -11 -161 -8 -21 -5 -31 14 -53 20 -23 27
-26 37 -16 11 11 9 16 -7 28 -18 13 -21 30 -26 177 l-5 162 -2 -137z"/>
<path d="M1005 1830 c3 -5 21 -10 40 -10 19 0 37 5 40 10 4 6 -12 10 -40 10
-28 0 -44 -4 -40 -10z"/>
<path d="M902 1813 c-6 -3 -10 -9 -6 -14 7 -12 41 -12 48 0 7 10 -23 20 -42
14z"/>
<path d="M1107 1724 c-10 -10 -8 -176 2 -192 5 -8 10 24 14 79 6 87 0 128 -16
113z"/>
<path d="M949 1604 c-5 -16 -9 -44 -8 -64 2 -19 -3 -45 -9 -57 -15 -28 -15
-124 0 -214 9 -59 15 -72 35 -80 30 -11 30 -29 0 -29 -28 0 -47 17 -47 43 0
10 -5 17 -12 15 -8 -3 -13 -22 -13 -49 0 -43 1 -44 33 -47 19 -2 44 4 57 12
14 9 38 16 54 16 16 0 33 5 36 10 10 16 -14 40 -36 37 -19 -2 -20 6 -22 151
-2 121 -5 155 -17 162 -9 6 -14 26 -15 61 0 59 -19 76 -36 33z m20 -201 c0
-47 -3 -62 -9 -48 -16 37 -11 115 7 115 2 0 3 -30 2 -67z"/>
<path d="M1137 1427 c-10 -27 -9 -75 3 -82 6 -3 10 -15 10 -26 0 -11 5 -30 12
-42 11 -21 11 -21 19 -2 12 31 10 73 -3 77 -7 3 -17 24 -23 49 -8 33 -13 40
-18 26z"/>
<path d="M1167 1103 c-10 -38 -8 -201 2 -208 8 -4 11 30 11 109 0 111 -3 136
-13 99z"/>
<path d="M871 940 c-8 -22 -7 -181 1 -186 17 -11 19 2 10 97 -5 52 -10 92 -11
89z"/>
<path d="M1186 861 c-9 -14 4 -41 20 -41 8 0 14 10 14 25 0 25 -23 35 -34 16z"/>
<path d="M410 1770 c0 -5 15 -10 34 -10 19 0 38 5 41 10 4 6 -10 10 -34 10
-23 0 -41 -4 -41 -10z"/>
<path d="M495 1751 c-3 -6 4 -15 15 -21 11 -6 20 -20 20 -30 0 -24 15 -26 24
-4 4 10 -3 26 -16 40 -25 26 -34 29 -43 15z"/>
<path d="M300 1740 c0 -5 13 -10 29 -10 17 0 33 5 36 10 4 6 -8 10 -29 10 -20
0 -36 -4 -36 -10z"/>
<path d="M195 1710 c3 -5 19 -10 36 -10 16 0 29 5 29 10 0 6 -16 10 -36 10
-21 0 -33 -4 -29 -10z"/>
<path d="M293 1558 c4 -46 7 -100 7 -120 0 -22 5 -38 11 -38 8 0 10 17 6 53
-5 58 4 110 17 89 4 -6 4 -56 0 -110 -5 -53 -10 -89 -12 -79 -7 34 -19 16 -26
-40 -3 -32 -9 -82 -12 -110 l-7 -53 31 0 c38 0 49 16 27 40 -17 19 -16 21 29
45 30 16 44 80 47 209 3 104 1 125 -15 149 -16 23 -24 27 -46 22 -20 -4 -29
-2 -33 9 -4 9 -12 16 -18 16 -9 0 -10 -22 -6 -82z"/>
<path d="M565 1628 c-2 -7 -1 -44 4 -83 l8 -70 2 83 c1 77 -4 99 -14 70z"/>
<path d="M447 1123 c-4 -3 -7 -17 -7 -30 0 -20 5 -23 41 -23 32 0 42 -4 46
-20 6 -22 18 -26 28 -10 10 16 -28 59 -53 60 -12 0 -25 7 -28 15 -7 16 -17 19
-27 8z"/>
<path d="M240 1086 c-14 -39 -12 -82 5 -96 12 -10 22 -9 53 3 21 8 49 13 62
10 14 -2 33 2 44 10 18 13 18 15 -11 47 -16 18 -41 34 -54 35 -13 2 -39 6 -56
10 -29 7 -34 5 -43 -19z"/>
<path d="M560 966 c0 -57 17 -69 22 -17 4 45 1 61 -13 61 -5 0 -9 -20 -9 -44z"/>
<path d="M290 917 c0 -13 6 -29 13 -36 9 -9 12 -60 12 -187 l-1 -174 27 0 c16
0 31 6 36 13 18 27 32 128 32 230 1 95 -2 113 -20 138 -16 22 -26 28 -44 23
-12 -3 -26 -1 -29 5 -12 19 -26 12 -26 -12z"/>
<path d="M267 549 c-22 -79 30 -151 61 -84 10 21 8 27 -13 43 -14 11 -29 30
-33 43 l-9 23 -6 -25z"/>
<path d="M5102 1753 c-17 -7 -5 -23 17 -23 10 0 31 -16 47 -35 30 -36 44 -44
44 -24 0 14 -74 89 -86 88 -5 0 -15 -3 -22 -6z"/>
<path d="M5212 1629 c1 -13 8 -23 13 -21 15 3 12 35 -3 40 -9 3 -13 -3 -10
-19z"/>
<path d="M5065 1604 c-6 -2 -9 -64 -7 -166 3 -134 7 -166 20 -181 16 -18 15
-20 -2 -33 -18 -13 -20 -26 -17 -210 2 -154 6 -200 17 -211 18 -19 18 -33 -1
-33 -8 0 -15 9 -15 20 0 11 -7 20 -15 20 -10 0 -15 -10 -15 -27 0 -38 59 -86
95 -77 32 8 33 34 1 34 -32 0 -42 16 -18 29 30 16 42 87 42 244 0 110 -3 148
-15 163 -19 25 -19 63 0 70 26 10 18 246 -11 347 -5 16 -34 22 -59 11z"/>
<path d="M5240 1545 c0 -39 15 -48 22 -12 5 27 0 47 -13 47 -5 0 -9 -16 -9
-35z"/>
<path d="M5008 1524 c-4 -5 -6 -69 -7 -142 0 -104 3 -132 13 -132 11 0 13 26
9 133 -5 144 -6 156 -15 141z"/>
<path d="M5276 1464 c-8 -22 -6 -75 4 -99 6 -14 9 1 9 48 1 68 -2 80 -13 51z"/>
<path d="M5307 1256 c-10 -26 -9 -64 3 -71 16 -10 22 19 13 56 -7 27 -11 30
-16 15z"/>
<path d="M5007 1184 c-11 -11 -7 -343 3 -349 6 -4 10 42 11 117 0 68 2 143 4
168 3 45 -5 76 -18 64z"/>
<path d="M5313 1080 c0 -25 2 -35 4 -22 2 12 2 32 0 45 -2 12 -4 2 -4 -23z"/>
<path d="M5520 1710 c0 -5 6 -10 14 -10 8 0 18 5 21 10 3 6 -3 10 -14 10 -12
0 -21 -4 -21 -10z"/>
<path d="M5577 1694 c-14 -14 6 -24 49 -24 44 0 58 12 28 24 -21 8 -69 8 -77
0z"/>
<path d="M5687 1664 c-16 -16 -5 -24 34 -24 28 0 39 4 37 13 -5 13 -60 22 -71
11z"/>
<path d="M5770 1625 c0 -8 4 -15 9 -15 31 0 121 -90 121 -121 0 -15 20 -10 27
6 6 16 1 22 -59 83 -58 57 -64 62 -81 62 -10 0 -17 -7 -17 -15z"/>
<path d="M5659 1568 c0 -7 -1 -131 -1 -276 0 -274 3 -292 44 -292 29 0 35 30
9 49 -21 16 -23 26 -28 177 -3 87 0 195 5 239 7 51 7 85 1 97 -11 21 -29 24
-30 6z"/>
<path d="M5719 1516 c-2 -2 -4 -105 -3 -228 1 -195 3 -223 17 -226 9 -2 24 9
34 24 15 24 18 51 18 190 0 103 -4 166 -11 175 -6 8 -14 26 -18 42 -6 24 -24
35 -37 23z"/>
<path d="M5930 1435 c0 -19 4 -35 9 -35 11 0 21 38 14 56 -10 26 -23 14 -23
-21z"/>
<path d="M5965 1358 c-7 -20 -1 -156 8 -164 4 -4 7 34 7 84 0 86 -4 109 -15
80z"/>
<path d="M5659 908 c-5 -58 5 -394 12 -396 5 -2 9 -9 9 -15 1 -23 51 -70 62
-59 12 12 -28 72 -49 72 -10 0 -13 32 -13 148 0 81 4 164 9 185 5 20 7 46 4
57 -6 22 -32 28 -34 8z"/>
<path d="M5870 730 c0 -11 7 -20 15 -20 8 0 15 9 15 20 0 11 -7 20 -15 20 -8
0 -15 -9 -15 -20z"/>
<path d="M5810 700 c0 -20 5 -30 15 -30 10 0 15 10 15 30 0 20 -5 30 -15 30
-10 0 -15 -10 -15 -30z"/>
<path d="M5922 701 c-11 -7 -10 -10 3 -15 23 -9 25 -8 25 9 0 17 -9 19 -28 6z"/>
<path d="M5866 664 c-10 -26 -7 -34 14 -34 15 0 20 7 20 25 0 28 -24 34 -34 9z"/>
<path d="M2649 324 c-31 -50 -18 -70 46 -67 51 2 95 31 95 65 0 21 -6 24 -71
33 -46 6 -47 5 -70 -31z"/>
<path d="M3194 553 c-20 -30 -53 -142 -54 -180 0 -13 6 -23 13 -23 31 0 68 77
75 159 5 65 -8 83 -34 44z"/>
<path d="M3423 398 c-20 -29 -22 -48 -5 -48 14 0 62 51 62 65 0 26 -34 16 -57
-17z"/>
</g>
</svg>
